<svg xmlns="http://www.w3.org/2000/svg" viewBox="0 0 512 512" width="512" height="512">
  <defs>
    <linearGradient id="bg" x1="0" y1="0" x2="1" y2="1">
      <stop offset="0%" stop-color="#1a1208"/>
      <stop offset="100%" stop-color="#2e1f0a"/>
    </linearGradient>
    <linearGradient id="gold" x1="0" y1="0" x2="0" y2="1">
      <stop offset="0%" stop-color="#f5d880"/>
      <stop offset="100%" stop-color="#b8842a"/>
    </linearGradient>
    <linearGradient id="keys" x1="0" y1="0" x2="0" y2="1">
      <stop offset="0%" stop-color="#f0e8d5"/>
      <stop offset="100%" stop-color="#d4c9b0"/>
    </linearGradient>
  </defs>

  <rect width="512" height="512" rx="112" fill="url(#bg)"/>
  <rect x="12" y="12" width="488" height="488" rx="100" fill="none" stroke="url(#gold)" stroke-width="6" opacity=".7"/>
  <rect x="50" y="18" width="412" height="5" rx="2" fill="white" opacity=".07"/>

  <text x="256" y="236"
    text-anchor="middle"
    font-family="Georgia, 'Times New Roman', serif"
    font-weight="700"
    font-size="156"
    letter-spacing="-6"
    fill="url(#gold)">PPS</text>

  <line x1="64" y1="264" x2="448" y2="264" stroke="url(#gold)" stroke-width="3" opacity=".5"/>

  <g transform="translate(56, 282)">
    <rect x="0"   y="0" width="48" height="168" rx="8" fill="url(#keys)"/>
    <rect x="55"  y="0" width="48" height="168" rx="8" fill="url(#keys)"/>
    <rect x="110" y="0" width="48" height="168" rx="8" fill="url(#keys)"/>
    <rect x="165" y="0" width="48" height="168" rx="8" fill="url(#keys)"/>
    <rect x="220" y="0" width="48" height="168" rx="8" fill="url(#keys)"/>
    <rect x="275" y="0" width="48" height="168" rx="8" fill="url(#keys)"/>
    <rect x="330" y="0" width="48" height="168" rx="8" fill="url(#keys)"/>
    <rect x="34"  y="0" width="36" height="108" rx="6" fill="#0d0b09"/>
    <rect x="89"  y="0" width="36" height="108" rx="6" fill="#0d0b09"/>
    <rect x="199" y="0" width="36" height="108" rx="6" fill="#0d0b09"/>
    <rect x="254" y="0" width="36" height="108" rx="6" fill="#0d0b09"/>
    <rect x="309" y="0" width="36" height="108" rx="6" fill="#0d0b09"/>
    <rect x="37"  y="3" width="10" height="22" rx="3" fill="white" opacity=".15"/>
    <rect x="92"  y="3" width="10" height="22" rx="3" fill="white" opacity=".15"/>
    <rect x="202" y="3" width="10" height="22" rx="3" fill="white" opacity=".15"/>
    <rect x="257" y="3" width="10" height="22" rx="3" fill="white" opacity=".15"/>
    <rect x="312" y="3" width="10" height="22" rx="3" fill="white" opacity=".15"/>
  </g>
</svg>
